<svg xmlns="http://www.w3.org/2000/svg" class="w-full h-full" width="16" height="16" viewBox="0 0 128 128"><path d="M87.181 48.175a3.475 3.475 0 0 1-.01 4.915l-26.66 26.557c-.051.059-.09.123-.144.178a3.464 3.464 0 0 1-2.462 1.022l-.017-.002-.017.002a3.461 3.461 0 0 1-2.461-1.022c-.056-.055-.095-.12-.145-.178L40.83 65.27a3.475 3.475 0 1 1 4.905-4.924L57.887 72.45l24.379-24.283a3.478 3.478 0 0 1 4.915.008zm31.203 47.07c-2.733 4.745-7.829 7.454-13.305 7.08l-14.779-1.02a7.245 7.245 0 0 0-7.033 4.038l-6.5 13.26c-2.403 4.903-7.295 7.947-12.767 7.947s-10.364-3.044-12.769-7.947l-6.5-13.26a7.221 7.221 0 0 0-7.033-4.038l-14.78 1.02c-5.43.371-10.572-2.332-13.303-7.08a14.033 14.033 0 0 1 .542-14.976l8.276-12.24a7.16 7.16 0 0 0 .001-8.059l-8.278-12.24a14.039 14.039 0 0 1-.541-14.977c2.733-4.744 7.809-7.45 13.305-7.08l14.778 1.02a7.234 7.234 0 0 0 7.034-4.037l6.5-13.26C53.635 4.493 58.527 1.45 64 1.45s10.364 3.044 12.769 7.947l6.5 13.26a7.247 7.247 0 0 0 7.033 4.038l14.78-1.02c5.448-.37 10.57 2.332 13.303 7.08a14.033 14.033 0 0 1-.542 14.976l-8.276 12.24a7.16 7.16 0 0 0-.001 8.059l8.278 12.24a14.036 14.036 0 0 1 .54 14.976zm-6.297-11.083-8.279-12.24a14.07 14.07 0 0 1 .002-15.844l8.276-12.24c1.577-2.332 1.68-5.18.276-7.616-1.418-2.459-3.964-3.794-6.804-3.614l-14.78 1.02a14.172 14.172 0 0 1-13.75-7.911l-6.502-13.261C69.282 9.916 66.843 8.4 64 8.4s-5.282 1.516-6.526 4.056l-6.501 13.26a14.178 14.178 0 0 1-13.75 7.913l-14.78-1.02c-2.863-.181-5.387 1.154-6.805 3.613-1.404 2.438-1.301 5.285.275 7.616l8.279 12.24a14.07 14.07 0 0 1-.002 15.844l-8.276 12.24c-1.577 2.332-1.68 5.18-.276 7.616 1.418 2.46 3.954 3.804 6.804 3.614l14.781-1.02c.334-.024.669-.034 1-.034a14.15 14.15 0 0 1 12.75 7.947l6.502 13.26c1.243 2.539 3.682 4.055 6.525 4.055s5.282-1.516 6.526-4.056l6.501-13.26a14.167 14.167 0 0 1 13.751-7.913l14.78 1.02c2.87.204 5.39-1.153 6.806-3.613 1.402-2.438 1.3-5.284-.277-7.616z" data-original="#000000"></path></svg>