<svg xmlns="http://www.w3.org/2000/svg" class="w-full h-full" width="16" height="16" viewBox="0 0 682.667 682.667"><defs><clipPath id="a" clipPathUnits="userSpaceOnUse"><path d="M0 512h512V0H0Z" data-original="#000000"></path></clipPath></defs><path fill="none" stroke="currentColor" stroke-linecap="round" stroke-linejoin="round" stroke-miterlimit="10" stroke-width="39.9999" d="M485.454 494.045H269.651" data-original="#000000"></path><g fill="none" stroke="currentColor" stroke-linecap="round" stroke-linejoin="round" stroke-miterlimit="10" stroke-width="30" clip-path="url(#a)" transform="matrix(1.33333 0 0 -1.33333 0 682.667)"><path d="M462.64 141.466h34.359V245.79l-86.048 88.909h-70.409V142.413M497 245.79H340.537M120.424 177.748c18.338 18.339 48.068 18.339 66.406 0 18.337-18.338 18.337-48.071 0-66.409-18.338-18.339-48.068-18.339-66.406 0-18.338 18.338-18.338 48.071 0 66.409Z" data-original="#000000"></path><path d="M382.151 177.748c18.338 18.339 48.068 18.339 66.406 0 18.338-18.338 18.338-48.071 0-66.409-18.338-18.339-48.068-18.339-66.406 0-18.337 18.338-18.337 48.071 0 66.409ZM62.36 414.415V141.631h42.369M340.964 334.573v79.843H62.36M166.435 414.415H62.359M166.435 354.402H36.004M155.433 294.388H15" data-original="#000000"></path></g></svg>